# xmcd
#
# Track frame offsets:
#	150
#	22845
#	51880
#	128015
#	155595
#	170755
#	198270
#	243065
#
# Disc length: 3669 seconds
#
# Revision: 1
# Processed by: cddbd v1.4PL0 Copyright (c) Steve Scherf et al.
# Submitted via: CDmax 2.0
#
DISCID=5d0e5308
DTITLE=Acoustic Hot Tuna - Jorma, Jack w/ Barry Mitterhoff - Acoustic Hot Tun
DTITLE=a - Live in Minneapolis, MN - 12.13.03 - d2
DYEAR=2003
DGENRE=Blues
TTITLE0=Tom Cat Blues
TTITLE1=Living In The Moment
TTITLE2=Good Shepherd
TTITLE3=I Am The Light Of This World
TTITLE4=A Life Well Lived
TTITLE5=Red River Blues
TTITLE6=Nine Pound Hammer
TTITLE7=San Francisco Bay Blues
EXTD=Hot Tuna\n12-13-03\nThe Cedar Cultural Center\nMinneapolis, MN\n\n\nSour
EXTD=ce: (FOB, DFC, MS) ADK A51 TL(card/figure 8) > V3 > AD1000 > DA-P1\n\nCo
EXTD=nversion: DAT > Audition 1.0 (add fades) > CD Wave > .Flac (level8]\nRec
EXTD=orded/Converted by Eric Swanson, whompinjack@yahoo.com\n\nDisc #1\n01. I
EXTD=ntro\n02. Big River Blues\n03. New Song (For The Morning]\n04. I'll Be A
EXTD=ll Right Someday\n05. Another Man Done Gone >\n06. Keep Your Lamps Trimm
EXTD=ed And Burning\n07. I See The Light\n08. I'll Let You Know Before I Leav
EXTD=e\n09. Prohibition Blues\n10. Day To Day Out The Window Blues\n11. Hear
EXTD=t Temporary\n\nDisc #2\n01. Tom Cat Blues\n02. Living In The Moment\n03
EXTD=Good Shepherd\n04. I Am The Light Of This World\n05. A Life Well Lived
EXTD=\n06. Red River Blues\nEncore:\n07. Nine Pound Hammer\nEncore 2:\n08. Sa
EXTD=n Francisco Bay Blues
EXTT0=
EXTT1=
EXTT2=
EXTT3=
EXTT4=
EXTT5=
EXTT6=
EXTT7=
PLAYORDER=
